<?xml version="1.0" standalone="no"?>
<!DOCTYPE svg PUBLIC "-//W3C//DTD SVG 20010904//EN"
 "http://www.w3.org/TR/2001/REC-SVG-20010904/DTD/svg10.dtd">
<svg version="1.0" xmlns="http://www.w3.org/2000/svg"
 width="360.000000pt" height="360.000000pt" viewBox="0 0 360.000000 360.000000"
 preserveAspectRatio="xMidYMid meet">

<g transform="translate(0.000000,360.000000) scale(0.100000,-0.100000)"
fill="#000000" stroke="none">
<path d="M1656 3579 c-162 -24 -345 -99 -508 -210 -119 -81 -331 -292 -420
-419 -180 -255 -285 -526 -303 -783 -22 -301 121 -791 354 -1219 257 -471 573
-788 861 -863 95 -25 231 -16 329 21 368 138 784 691 1022 1357 119 332 156
617 109 847 -123 605 -674 1186 -1200 1266 -104 15 -155 16 -244 3z m204 -260
c167 -27 317 -107 455 -244 138 -137 228 -288 272 -458 12 -45 23 -69 35 -73
33 -10 117 -84 158 -138 75 -99 106 -214 90 -328 -20 -141 -64 -199 -233 -311
-62 -40 -127 -90 -145 -111 -70 -81 -190 -365 -323 -770 -49 -148 -106 -305
-128 -350 -73 -150 -158 -220 -271 -219 -157 2 -247 121 -365 483 -138 428
-268 749 -340 846 -13 17 -84 72 -158 123 -174 119 -209 169 -223 321 -17 175
83 367 228 441 22 11 40 25 42 32 77 295 173 450 367 596 176 133 363 189 539
160z"/>
<path d="M1978 2775 c-16 -9 -33 -32 -44 -60 -51 -135 55 -489 187 -623 71
-72 136 -104 225 -110 65 -4 77 -2 125 24 70 39 109 98 109 169 0 76 -29 111
-141 171 -129 68 -188 129 -263 272 -82 157 -129 194 -198 157z"/>
<path d="M1480 2763 c-38 -27 -55 -50 -111 -155 -74 -140 -146 -215 -262 -273
-51 -25 -102 -57 -114 -70 -67 -75 -18 -217 92 -266 55 -25 140 -24 212 2 87
33 178 130 237 251 83 175 114 390 68 475 -13 23 -60 53 -84 53 -8 0 -25 -8
-38 -17z"/>
<path d="M1723 2163 c-51 -80 -113 -227 -120 -285 -6 -46 -5 -48 19 -48 14 0
53 18 86 40 33 22 63 40 68 40 5 0 36 -18 69 -40 33 -22 71 -40 84 -40 22 0
23 3 19 53 -9 96 -125 327 -170 335 -12 2 -29 -15 -55 -55z"/>
<path d="M1652 1678 c-49 -17 -89 -59 -102 -108 -10 -38 -7 -70 24 -254 19
-116 40 -276 46 -356 21 -293 68 -459 137 -476 88 -22 138 105 163 411 12 153
28 267 60 419 29 144 27 211 -9 268 -45 71 -105 101 -205 104 -45 2 -96 -2
-114 -8z"/>
</g>
</svg>
